<mxfile host="Electron" agent="Mozilla/5.0 (Macintosh; Intel Mac OS X 10_15_7) AppleWebKit/537.36 (KHTML, like Gecko) draw.io/28.1.2 Chrome/138.0.7204.243 Electron/37.4.0 Safari/537.36" version="28.1.2">
  <diagram name="C4-Container-v2" id="c4_container_v2">
    <mxGraphModel dx="1455" dy="1045" grid="0" gridSize="10" guides="1" tooltips="1" connect="1" arrows="1" fold="1" page="1" pageScale="1" pageWidth="1600" pageHeight="1200" background="light-dark(#222326, #222326)" math="0" shadow="0">
      <root>
        <mxCell id="0" />
        <mxCell id="1" parent="0" />
        <mxCell id="external_systems" value="" style="rounded=1;whiteSpace=wrap;html=1;fillColor=none;strokeColor=#ffa000;strokeWidth=2;dashed=1;sketch=1;curveFitting=1;jiggle=2;" parent="1" vertex="1">
          <mxGeometry x="200" y="900" width="1200" height="200" as="geometry" />
        </mxCell>
        <mxCell id="external_label" value="&lt;b&gt;External Systems &amp; Integrations&lt;/b&gt;" style="text;html=1;strokeColor=none;fillColor=none;align=left;verticalAlign=top;whiteSpace=wrap;rounded=0;fontSize=14;fontStyle=1;fontColor=#FFD966;sketch=1;curveFitting=1;jiggle=2;" parent="1" vertex="1">
          <mxGeometry x="220" y="910" width="254" height="20" as="geometry" />
        </mxCell>
        <mxCell id="frontend_layer" value="" style="rounded=1;whiteSpace=wrap;html=1;fillColor=none;strokeColor=#2196f3;strokeWidth=2;dashed=1;sketch=1;curveFitting=1;jiggle=2;" parent="1" vertex="1">
          <mxGeometry x="200" y="80" width="1200" height="160" as="geometry" />
        </mxCell>
        <mxCell id="frontend_label" value="&lt;b&gt;Frontend Layer (Multi-Channel)&lt;/b&gt;" style="text;html=1;strokeColor=none;fillColor=none;align=left;verticalAlign=top;whiteSpace=wrap;rounded=0;fontSize=14;fontStyle=1;fontColor=#FFD966;sketch=1;curveFitting=1;jiggle=2;" parent="1" vertex="1">
          <mxGeometry x="1022" y="85" width="235" height="21" as="geometry" />
        </mxCell>
        <mxCell id="cloudflare_cdn" value="&lt;b&gt;CloudFlare CDN&lt;/b&gt;&lt;br/&gt;[Edge Network]&lt;br/&gt;&lt;br/&gt;Global CDN + DDoS&lt;br/&gt;WAF Protection&lt;br/&gt;Edge Caching" style="rounded=1;whiteSpace=wrap;html=1;fillColor=#ff9800;fontColor=#FFD966;align=center;sketch=1;curveFitting=1;jiggle=2;" parent="1" vertex="1">
          <mxGeometry x="230" y="120" width="150" height="100" as="geometry" />
        </mxCell>
        <mxCell id="merchant_portal" value="&lt;b&gt;Merchant Portal&lt;/b&gt;&lt;br/&gt;[React SPA]&lt;br/&gt;&lt;br/&gt;Self-service dashboard&lt;br/&gt;Real-time analytics&lt;br/&gt;Configuration UI" style="rounded=1;whiteSpace=wrap;html=1;fillColor=#4caf50;fontColor=#FFD966;align=center;sketch=1;curveFitting=1;jiggle=2;" parent="1" vertex="1">
          <mxGeometry x="420" y="120" width="150" height="100" as="geometry" />
        </mxCell>
        <mxCell id="checkout_widget" value="&lt;b&gt;Checkout Widget&lt;/b&gt;&lt;br/&gt;[JavaScript SDK]&lt;br/&gt;&lt;br/&gt;Embeddable widget&lt;br/&gt;PCI-compliant&lt;br/&gt;One-click payments" style="rounded=1;whiteSpace=wrap;html=1;fillColor=#4caf50;fontColor=#FFD966;align=center;sketch=1;curveFitting=1;jiggle=2;" parent="1" vertex="1">
          <mxGeometry x="610" y="120" width="150" height="100" as="geometry" />
        </mxCell>
        <mxCell id="mobile_app" value="&lt;b&gt;Mobile App&lt;/b&gt;&lt;br/&gt;[React Native]&lt;br/&gt;&lt;br/&gt;iOS/Android app&lt;br/&gt;Push notifications&lt;br/&gt;Offline capability" style="rounded=1;whiteSpace=wrap;html=1;fillColor=#4caf50;fontColor=#FFD966;align=center;sketch=1;curveFitting=1;jiggle=2;" parent="1" vertex="1">
          <mxGeometry x="800" y="120" width="150" height="100" as="geometry" />
        </mxCell>
        <mxCell id="payment_links" value="&lt;b&gt;Payment Links&lt;/b&gt;&lt;br/&gt;[Hosted Pages]&lt;br/&gt;&lt;br/&gt;One-time links&lt;br/&gt;Expirable URLs&lt;br/&gt;Social sharing" style="rounded=1;whiteSpace=wrap;html=1;fillColor=#4caf50;fontColor=#FFD966;align=center;sketch=1;curveFitting=1;jiggle=2;" parent="1" vertex="1">
          <mxGeometry x="990" y="120" width="150" height="100" as="geometry" />
        </mxCell>
        <mxCell id="bff_layer" value="" style="rounded=1;whiteSpace=wrap;html=1;fillColor=none;strokeColor=#ff9800;strokeWidth=2;dashed=1;sketch=1;curveFitting=1;jiggle=2;" parent="1" vertex="1">
          <mxGeometry x="200" y="260" width="1200" height="120" as="geometry" />
        </mxCell>
        <mxCell id="bff_label" value="&lt;b&gt;Backend for Frontend (BFF) Pattern&lt;/b&gt;" style="text;html=1;strokeColor=none;fillColor=none;align=left;verticalAlign=top;whiteSpace=wrap;rounded=0;fontSize=14;fontStyle=1;fontColor=#FFD966;sketch=1;curveFitting=1;jiggle=2;" parent="1" vertex="1">
          <mxGeometry x="1024" y="262" width="250" height="20" as="geometry" />
        </mxCell>
        <mxCell id="merchant_bff" value="&lt;b&gt;Merchant BFF&lt;/b&gt;&lt;br/&gt;[TypeScript]&lt;br/&gt;&lt;br/&gt;Dashboard API&lt;br/&gt;Aggregated data&lt;br/&gt;Complex queries" style="rounded=1;whiteSpace=wrap;html=1;fillColor=#ff9800;fontColor=#FFD966;align=center;sketch=1;curveFitting=1;jiggle=2;" parent="1" vertex="1">
          <mxGeometry x="250" y="266" width="137" height="104" as="geometry" />
        </mxCell>
        <mxCell id="checkout_bff" value="&lt;b&gt;Checkout BFF&lt;/b&gt;&lt;br/&gt;[TypeScript]&lt;br/&gt;&lt;br/&gt;Payment API&lt;br/&gt;Optimized for speed&lt;br/&gt;Minimal payload" style="rounded=1;whiteSpace=wrap;html=1;fillColor=#ff9800;fontColor=#FFD966;align=center;sketch=1;curveFitting=1;jiggle=2;" parent="1" vertex="1">
          <mxGeometry x="420" y="268" width="142" height="102" as="geometry" />
        </mxCell>
        <mxCell id="mobile_bff" value="&lt;b&gt;Mobile BFF&lt;/b&gt;&lt;br/&gt;[TypeScript]&lt;br/&gt;&lt;br/&gt;Mobile-optimized&lt;br/&gt;Offline support&lt;br/&gt;Push notifications" style="rounded=1;whiteSpace=wrap;html=1;fillColor=#ff9800;fontColor=#FFD966;align=center;sketch=1;curveFitting=1;jiggle=2;" parent="1" vertex="1">
          <mxGeometry x="590" y="269" width="138" height="101" as="geometry" />
        </mxCell>
        <mxCell id="partners_bff" value="&lt;b&gt;Partners BFF&lt;/b&gt;&lt;br/&gt;[TypeScript]&lt;br/&gt;&lt;br/&gt;External API&lt;br/&gt;Rate limiting&lt;br/&gt;API versioning" style="rounded=1;whiteSpace=wrap;html=1;fillColor=#ff9800;fontColor=#FFD966;align=center;sketch=1;curveFitting=1;jiggle=2;" parent="1" vertex="1">
          <mxGeometry x="760" y="268" width="138" height="102" as="geometry" />
        </mxCell>
        <mxCell id="zero_trust_layer" value="" style="rounded=1;whiteSpace=wrap;html=1;fillColor=none;strokeColor=#7b1fa2;strokeWidth=2;dashed=1;sketch=1;curveFitting=1;jiggle=2;" parent="1" vertex="1">
          <mxGeometry x="200" y="400" width="1200" height="140" as="geometry" />
        </mxCell>
        <mxCell id="zero_trust_label" value="&lt;b&gt;Zero Trust Gateway + Security Layer&lt;/b&gt;" style="text;html=1;strokeColor=none;fillColor=none;align=left;verticalAlign=top;whiteSpace=wrap;rounded=0;fontSize=14;fontStyle=1;fontColor=#FFD966;sketch=1;curveFitting=1;jiggle=2;" parent="1" vertex="1">
          <mxGeometry x="1024" y="409" width="300" height="20" as="geometry" />
        </mxCell>
        <mxCell id="kong_gateway" value="&lt;b&gt;Kong Gateway&lt;/b&gt;&lt;br/&gt;[API Gateway]&lt;br/&gt;&lt;br/&gt;Rate limiting&lt;br/&gt;API key validation&lt;br/&gt;LUA scripting&lt;br/&gt;Circuit breakers" style="rounded=1;whiteSpace=wrap;html=1;fillColor=#7b1fa2;fontColor=#FFD966;align=center;sketch=1;curveFitting=1;jiggle=2;" parent="1" vertex="1">
          <mxGeometry x="230" y="417" width="138" height="111" as="geometry" />
        </mxCell>
        <mxCell id="auth0" value="&lt;b&gt;Auth0&lt;/b&gt;&lt;br/&gt;[Identity Provider]&lt;br/&gt;&lt;br/&gt;Enterprise SSO&lt;br/&gt;MFA support&lt;br/&gt;JWT validation&lt;br/&gt;User management" style="rounded=1;whiteSpace=wrap;html=1;fillColor=#7b1fa2;fontColor=#FFD966;align=center;sketch=1;curveFitting=1;jiggle=2;" parent="1" vertex="1">
          <mxGeometry x="390" y="420" width="131" height="110" as="geometry" />
        </mxCell>
        <mxCell id="waf" value="&lt;b&gt;AWS WAF&lt;/b&gt;&lt;br/&gt;[Web Firewall]&lt;br/&gt;&lt;br/&gt;DDoS protection&lt;br/&gt;Bot detection&lt;br/&gt;Rate limiting&lt;br/&gt;Geo blocking" style="rounded=1;whiteSpace=wrap;html=1;fillColor=#7b1fa2;fontColor=#FFD966;align=center;sketch=1;curveFitting=1;jiggle=2;" parent="1" vertex="1">
          <mxGeometry x="550" y="418" width="142" height="113" as="geometry" />
        </mxCell>
        <mxCell id="secrets_manager" value="&lt;b&gt;Parameter Store&lt;/b&gt;&lt;br/&gt;[Config Management]&lt;br/&gt;&lt;br/&gt;Environment vars&lt;br/&gt;Secure strings&lt;br/&gt;Self-service access&lt;br/&gt;Cost optimized" style="rounded=1;whiteSpace=wrap;html=1;fillColor=#7b1fa2;fontColor=#FFD966;align=center;sketch=1;curveFitting=1;jiggle=2;" parent="1" vertex="1">
          <mxGeometry x="708" y="421" width="132" height="109" as="geometry" />
        </mxCell>
        <mxCell id="vault" value="&lt;b&gt;PCI Vault&lt;/b&gt;&lt;br/&gt;[Tokenization]&lt;br/&gt;&lt;br/&gt;Card tokenization&lt;br/&gt;PII protection&lt;br/&gt;Network isolation&lt;br/&gt;Compliance ready" style="rounded=1;whiteSpace=wrap;html=1;fillColor=#d32f2f;fontColor=#FFD966;align=center;sketch=1;curveFitting=1;jiggle=2;" parent="1" vertex="1">
          <mxGeometry x="864" y="420" width="136" height="110" as="geometry" />
        </mxCell>
        <mxCell id="microservices_layer" value="" style="rounded=1;whiteSpace=wrap;html=1;fillColor=#e8f5e9;strokeColor=#4caf50;strokeWidth=2;dashed=1;" parent="1" vertex="1">
          <mxGeometry x="200" y="560" width="1200" height="295" as="geometry" />
        </mxCell>
        <mxCell id="microservices_label" value="&lt;b&gt;Core Microservices (Java Spring Boot + Go)&lt;/b&gt;" style="text;html=1;strokeColor=none;fillColor=none;align=left;verticalAlign=top;whiteSpace=wrap;rounded=0;fontSize=14;fontStyle=1;fontColor=#464646;" parent="1" vertex="1">
          <mxGeometry x="1019" y="570" width="300" height="20" as="geometry" />
        </mxCell>
        <mxCell id="payment_service" value="&lt;b&gt;Payment Service&lt;/b&gt;&lt;br/&gt;[Java Spring]&lt;br/&gt;&lt;br/&gt;Transaction processing&lt;br/&gt;SAGA orchestration&lt;br/&gt;Multi-rail routing&lt;br/&gt;Circuit breakers" style="html=1;whiteSpace=wrap;fillColor=#4caf50;fontColor=#ffffff;shape=mxgraph.c4.component;align=center;" parent="1" vertex="1">
          <mxGeometry x="230" y="575" width="126" height="132" as="geometry" />
        </mxCell>
        <mxCell id="fraud_service" value="&lt;b&gt;Fraud Service&lt;/b&gt;&lt;br/&gt;[Python FastAPI]&lt;br/&gt;&lt;br/&gt;ML risk scoring&lt;br/&gt;Rule engine&lt;br/&gt;Real-time analysis&lt;br/&gt;Adaptive learning" style="html=1;whiteSpace=wrap;fillColor=#4caf50;fontColor=#ffffff;shape=mxgraph.c4.component;align=center;" parent="1" vertex="1">
          <mxGeometry x="390" y="574" width="130" height="116" as="geometry" />
        </mxCell>
        <mxCell id="merchant_service" value="&lt;b&gt;Merchant Service&lt;/b&gt;&lt;br/&gt;[Java Spring]&lt;br/&gt;&lt;br/&gt;Onboarding&lt;br/&gt;KYC/KYB checks&lt;br/&gt;Self-service portal&lt;br/&gt;Configuration" style="html=1;whiteSpace=wrap;fillColor=#4caf50;fontColor=#ffffff;shape=mxgraph.c4.component;align=center;" parent="1" vertex="1">
          <mxGeometry x="548" y="576" width="132" height="114" as="geometry" />
        </mxCell>
        <mxCell id="clearing_service" value="&lt;b&gt;Clearing Service&lt;/b&gt;&lt;br/&gt;[Java Spring]&lt;br/&gt;&lt;br/&gt;Daily processing&lt;br/&gt;TCR generation&lt;br/&gt;Settlement files&lt;br/&gt;SFTP automation" style="html=1;whiteSpace=wrap;fillColor=#4caf50;fontColor=#ffffff;shape=mxgraph.c4.component;align=center;" parent="1" vertex="1">
          <mxGeometry x="708" y="572" width="132" height="118" as="geometry" />
        </mxCell>
        <mxCell id="webhook_service" value="&lt;b&gt;Webhook Service&lt;/b&gt;&lt;br/&gt;[Go]&lt;br/&gt;&lt;br/&gt;Event delivery&lt;br/&gt;Retry logic&lt;br/&gt;Svix integration&lt;br/&gt;Signature validation" style="html=1;whiteSpace=wrap;fillColor=#4caf50;fontColor=#ffffff;shape=mxgraph.c4.component;align=center;" parent="1" vertex="1">
          <mxGeometry x="867" y="575" width="133" height="115" as="geometry" />
        </mxCell>
        <mxCell id="billing_service" value="&lt;b&gt;Billing Service&lt;/b&gt;&lt;br/&gt;[Go]&lt;br/&gt;&lt;br/&gt;Usage tracking&lt;br/&gt;Lago integration&lt;br/&gt;Volume pricing&lt;br/&gt;Invoice generation" style="html=1;whiteSpace=wrap;fillColor=#4caf50;fontColor=#ffffff;shape=mxgraph.c4.component;align=center;" parent="1" vertex="1">
          <mxGeometry x="543" y="726" width="145" height="124" as="geometry" />
        </mxCell>
        <mxCell id="network_adapter" value="&lt;b&gt;Network Adapters&lt;/b&gt;&lt;br/&gt;[Java jPOS]&lt;br/&gt;&lt;br/&gt;ISO8583 processing&lt;br/&gt;Mastercard/Visa&lt;br/&gt;Dynamic mapping&lt;br/&gt;Network tokens" style="html=1;whiteSpace=wrap;fillColor=#4caf50;fontColor=#ffffff;shape=mxgraph.c4.component;align=center;" parent="1" vertex="1">
          <mxGeometry x="233" y="725" width="127" height="122" as="geometry" />
        </mxCell>
        <mxCell id="reporting_service" value="&lt;b&gt;Reporting Service&lt;/b&gt;&lt;br/&gt;[Java Spring]&lt;br/&gt;&lt;br/&gt;Analytics engine&lt;br/&gt;Real-time dashboards&lt;br/&gt;Business intelligence&lt;br/&gt;Custom reports" style="html=1;whiteSpace=wrap;fillColor=#4caf50;fontColor=#ffffff;shape=mxgraph.c4.component;align=center;" parent="1" vertex="1">
          <mxGeometry x="389" y="724" width="132" height="123" as="geometry" />
        </mxCell>
        <mxCell id="event_layer" value="" style="rounded=1;whiteSpace=wrap;html=1;fillColor=#fce4ec;strokeColor=#c2185b;strokeWidth=2;dashed=1;" parent="1" vertex="1">
          <mxGeometry x="700" y="707" width="402" height="60" as="geometry" />
        </mxCell>
        <mxCell id="event_label" value="&lt;b&gt;Event Streaming (SAGA + Event Sourcing)&lt;/b&gt;" style="text;html=1;strokeColor=none;fillColor=none;align=left;verticalAlign=top;whiteSpace=wrap;rounded=0;fontSize=12;fontStyle=1;" parent="1" vertex="1">
          <mxGeometry x="712" y="712" width="280" height="15" as="geometry" />
        </mxCell>
        <mxCell id="kafka" value="&lt;b&gt;Kafka MSK&lt;/b&gt;&lt;br/&gt;Event Bus" style="html=1;whiteSpace=wrap;fillColor=#c2185b;fontColor=#ffffff;shape=mxgraph.c4.component;align=center;" parent="1" vertex="1">
          <mxGeometry x="712" y="722" width="80" height="38" as="geometry" />
        </mxCell>
        <mxCell id="sns_sqs" value="&lt;b&gt;SNS/SQS&lt;/b&gt;&lt;br/&gt;Fan-out" style="html=1;whiteSpace=wrap;fillColor=#c2185b;fontColor=#ffffff;shape=mxgraph.c4.component;align=center;" parent="1" vertex="1">
          <mxGeometry x="812" y="722" width="80" height="40" as="geometry" />
        </mxCell>
        <mxCell id="event_store" value="&lt;b&gt;Event Store&lt;/b&gt;&lt;br/&gt;Audit Trail" style="html=1;whiteSpace=wrap;fillColor=#c2185b;fontColor=#ffffff;shape=mxgraph.c4.component;align=center;" parent="1" vertex="1">
          <mxGeometry x="912" y="722" width="80" height="40" as="geometry" />
        </mxCell>
        <mxCell id="saga_orchestrator" value="&lt;b&gt;SAGA Engine&lt;/b&gt;&lt;br/&gt;Orchestrator" style="html=1;whiteSpace=wrap;fillColor=#c2185b;fontColor=#ffffff;shape=mxgraph.c4.component;align=center;" parent="1" vertex="1">
          <mxGeometry x="1012" y="720" width="80" height="39" as="geometry" />
        </mxCell>
        <mxCell id="mastercard" value="&lt;b&gt;Mastercard&lt;/b&gt;&lt;br/&gt;[Network]&lt;br/&gt;&lt;br/&gt;Payment processing&lt;br/&gt;Network tokens&lt;br/&gt;Fraud intelligence" style="html=1;whiteSpace=wrap;fillColor=#ff5722;fontColor=#ffffff;shape=mxgraph.c4.component;align=center;" parent="1" vertex="1">
          <mxGeometry x="230" y="950" width="123" height="97" as="geometry" />
        </mxCell>
        <mxCell id="visa" value="&lt;b&gt;Visa&lt;/b&gt;&lt;br/&gt;[Network]&lt;br/&gt;&lt;br/&gt;Payment processing&lt;br/&gt;VIP support&lt;br/&gt;TCR clearing" style="html=1;whiteSpace=wrap;fillColor=#ff5722;fontColor=#ffffff;shape=mxgraph.c4.component;align=center;" parent="1" vertex="1">
          <mxGeometry x="368" y="947" width="122" height="100" as="geometry" />
        </mxCell>
        <mxCell id="banks" value="&lt;b&gt;Banking APIs&lt;/b&gt;&lt;br/&gt;[Open Banking]&lt;br/&gt;&lt;br/&gt;Account verification&lt;br/&gt;PIX integration&lt;br/&gt;TED/DOC processing" style="html=1;whiteSpace=wrap;fillColor=#ff5722;fontColor=#ffffff;shape=mxgraph.c4.component;align=center;" parent="1" vertex="1">
          <mxGeometry x="509" y="950" width="123" height="97" as="geometry" />
        </mxCell>
        <mxCell id="bureaus" value="&lt;b&gt;Credit Bureaus&lt;/b&gt;&lt;br/&gt;[Risk Data]&lt;br/&gt;&lt;br/&gt;Serasa/SPC&lt;br/&gt;Identity verification&lt;br/&gt;Fraud databases" style="html=1;whiteSpace=wrap;fillColor=#ff5722;fontColor=#ffffff;shape=mxgraph.c4.component;align=center;" parent="1" vertex="1">
          <mxGeometry x="651" y="954.5" width="120" height="91" as="geometry" />
        </mxCell>
        <mxCell id="third_party" value="&lt;b&gt;Third-party APIs&lt;/b&gt;&lt;br/&gt;[External Services]&lt;br/&gt;&lt;br/&gt;SendGrid (email)&lt;br/&gt;Twilio (SMS)&lt;br/&gt;Lago (billing)" style="html=1;whiteSpace=wrap;fillColor=#ff5722;fontColor=#ffffff;shape=mxgraph.c4.component;align=center;" parent="1" vertex="1">
          <mxGeometry x="791" y="956.5" width="120" height="89" as="geometry" />
        </mxCell>
        <mxCell id="ecommerce_platforms" value="&lt;b&gt;E-commerce&lt;/b&gt;&lt;br/&gt;[Platforms]&lt;br/&gt;&lt;br/&gt;Shopify/WooCommerce&lt;br/&gt;Plugin integration&lt;br/&gt;Webhook callbacks" style="html=1;whiteSpace=wrap;fillColor=#ff5722;fontColor=#ffffff;shape=mxgraph.c4.component;align=center;" parent="1" vertex="1">
          <mxGeometry x="931" y="947" width="120" height="94" as="geometry" />
        </mxCell>
        <mxCell id="svix" value="&lt;b&gt;Svix&lt;/b&gt;&lt;br/&gt;[Webhook SaaS]&lt;br/&gt;&lt;br/&gt;Reliable delivery&lt;br/&gt;Retry automation&lt;br/&gt;Event management" style="html=1;whiteSpace=wrap;fillColor=#ff5722;fontColor=#ffffff;shape=mxgraph.c4.component;align=center;" parent="1" vertex="1">
          <mxGeometry x="1071" y="945" width="120" height="98" as="geometry" />
        </mxCell>
        <mxCell id="port_platform" value="&lt;b&gt;Port Platform&lt;/b&gt;&lt;br/&gt;[IDP]&lt;br/&gt;&lt;br/&gt;Self-service infra&lt;br/&gt;Pulumi automation&lt;br/&gt;Developer portal" style="html=1;whiteSpace=wrap;fillColor=#ff5722;fontColor=#ffffff;shape=mxgraph.c4.component;align=center;" parent="1" vertex="1">
          <mxGeometry x="1211" y="944" width="120" height="97" as="geometry" />
        </mxCell>
        <mxCell id="data_annotation" value="&lt;b&gt;Data Layer:&lt;/b&gt; PostgreSQL Multi-AZ + Redis Cluster + S3 Event Store + ElasticSearch Analytics + Transit Gateway Network Segmentation" style="text;html=1;strokeColor=none;fillColor=none;align=center;verticalAlign=middle;whiteSpace=wrap;rounded=0;fontSize=12;fontStyle=1;fontColor=#666666;" parent="1" vertex="1">
          <mxGeometry x="205" y="1124" width="1200" height="30" as="geometry" />
        </mxCell>
        <mxCell id="observability_annotation" value="&lt;b&gt;Observability:&lt;/b&gt; New Relic APM + CloudWatch Logs → S3 + Prometheus Metrics + Incident.io Response + K6 Performance Testing" style="text;html=1;strokeColor=none;fillColor=none;align=center;verticalAlign=middle;whiteSpace=wrap;rounded=0;fontSize=12;fontStyle=1;fontColor=#666666;" parent="1" vertex="1">
          <mxGeometry x="205" y="1148" width="1200" height="30" as="geometry" />
        </mxCell>
        <mxCell id="edge2" value="" style="endArrow=classic;html=1;exitX=1;exitY=0.5;exitDx=0;exitDy=0;entryX=0;entryY=0.5;entryDx=0;entryDy=0;" parent="1" source="cloudflare_cdn" target="merchant_portal" edge="1">
          <mxGeometry width="50" height="50" relative="1" as="geometry">
            <mxPoint x="600" y="400" as="sourcePoint" />
            <mxPoint x="650" y="350" as="targetPoint" />
          </mxGeometry>
        </mxCell>
        <mxCell id="edge4" value="" style="endArrow=classic;html=1;exitX=0.5;exitY=1;exitDx=0;exitDy=0;entryX=0.5;entryY=0;entryDx=0;entryDy=0;" parent="1" source="merchant_bff" target="kong_gateway" edge="1">
          <mxGeometry width="50" height="50" relative="1" as="geometry">
            <mxPoint x="600" y="400" as="sourcePoint" />
            <mxPoint x="650" y="350" as="targetPoint" />
          </mxGeometry>
        </mxCell>
        <mxCell id="edge5" value="" style="endArrow=classic;html=1;exitX=0.5;exitY=1;exitDx=0;exitDy=0;entryX=0.5;entryY=0;entryDx=0;entryDy=0;" parent="1" source="kong_gateway" target="payment_service" edge="1">
          <mxGeometry width="50" height="50" relative="1" as="geometry">
            <mxPoint x="600" y="500" as="sourcePoint" />
            <mxPoint x="650" y="450" as="targetPoint" />
          </mxGeometry>
        </mxCell>
      </root>
    </mxGraphModel>
  </diagram>
</mxfile>
